<svg id="Icons" enable-background="new 0 0 60 60" height="512" viewBox="0 0 60 60" width="512"
    xmlns="http://www.w3.org/2000/svg">
    <g>
        <path
            d="m55.536 18.962-12.193-2.486c-1.025-.209-1.904-.851-2.412-1.76l-6.054-10.857c-.998-1.79-2.821-2.859-4.877-2.859s-3.879 1.069-4.877 2.859l-6.054 10.856c-.508.91-1.387 1.551-2.412 1.76l-12.193 2.487c-1.991.406-3.557 1.799-4.187 3.726-.627 1.919-.188 3.958 1.171 5.453l8.495 9.34c.689.757 1.018 1.774.902 2.789l-1.433 12.534c-.231 2.019.617 3.937 2.268 5.129.98.708 2.114 1.069 3.262 1.069.797 0 1.601-.174 2.363-.527l11.186-5.174c.959-.444 2.061-.444 3.02 0l11.186 5.174c1.862.861 3.964.658 5.625-.542 1.65-1.193 2.499-3.11 2.268-5.129l-1.434-12.533c-.115-1.015.213-2.032.902-2.79l8.495-9.34c1.359-1.496 1.798-3.534 1.171-5.453-.631-1.926-2.197-3.319-4.188-3.726zm1.535 7.834-8.495 9.34c-1.076 1.185-1.59 2.774-1.408 4.362l1.434 12.534c.147 1.291-.396 2.517-1.453 3.281-1.064.77-2.416.903-3.613.348l-11.186-5.175c-1.494-.69-3.205-.69-4.699 0l-11.186 5.174c-1.196.555-2.548.422-3.613-.348-1.058-.764-1.601-1.99-1.453-3.281l1.434-12.534c.182-1.588-.332-3.177-1.408-4.362l-8.495-9.34c-.87-.957-1.15-2.26-.75-3.486.403-1.234 1.407-2.126 2.686-2.387l12.193-2.486c1.597-.326 2.967-1.327 3.758-2.747l6.054-10.856c.639-1.148 1.809-1.833 3.129-1.833s2.49.685 3.131 1.833l6.054 10.856c.791 1.42 2.161 2.421 3.758 2.747l12.193 2.486c1.278.261 2.282 1.153 2.686 2.387.4 1.227.119 2.53-.751 3.487z" />
        <circle cx="24" cy="23" r="1" />
        <circle cx="36" cy="23" r="1" />
        <path
            d="m42.214 28.891c-.001 0-.001 0 0 0-2.374.962-6.42 2.109-12.214 2.109s-9.84-1.147-12.214-2.109c-1.057-.431-2.241-.225-3.094.529-.861.761-1.212 1.924-.914 3.035 1.353 5.059 5.26 13.545 16.222 13.545s14.869-8.486 16.222-13.545c.298-1.111-.053-2.274-.914-3.035-.853-.754-2.037-.959-3.094-.529zm-12.214 15.109c-7.823 0-11.636-4.802-13.498-9.635 2.902 1.934 7.231 3.635 13.498 3.635s10.596-1.701 13.498-3.635c-1.862 4.833-5.675 9.635-13.498 9.635zm0-8c-7.359 0-11.759-2.489-14.231-4.731.058-.129.135-.25.248-.35.101-.089.327-.251.642-.251.115 0 .241.021.377.077 2.538 1.028 6.848 2.255 12.964 2.255s10.426-1.227 12.964-2.256c.51-.205.882.053 1.02.175.113.1.19.221.248.35-2.473 2.242-6.873 4.731-14.232 4.731z" />
        <path
            d="m31 27c0 .552.447 1 1 1h8c.553 0 1-.448 1-1s-.447-1-1-1h-.026c.635-.838 1.026-1.87 1.026-3 0-2.757-2.243-5-5-5s-5 2.243-5 5c0 1.13.391 2.162 1.026 3h-.026c-.553 0-1 .448-1 1zm5-7c1.654 0 3 1.346 3 3s-1.346 3-3 3-3-1.346-3-3 1.346-3 3-3z" />
        <path
            d="m19 27c0 .552.447 1 1 1h8c.553 0 1-.448 1-1s-.447-1-1-1h-.026c.635-.838 1.026-1.87 1.026-3 0-2.757-2.243-5-5-5s-5 2.243-5 5c0 1.13.391 2.162 1.026 3h-.026c-.553 0-1 .448-1 1zm5-7c1.654 0 3 1.346 3 3s-1.346 3-3 3-3-1.346-3-3 1.346-3 3-3z" />
    </g>
</svg>